# File created by Blade
# Date/Time:  Tue Sep 30 19:15:05 2014
# Frame Rate: 120.000 fps
#------------------------------------------------------
:FULLY-SPECIFIED
:DEGREES
3715
root -1.969896 34.044533 -2.715095 46.597474 -3.517746 -32.420589
Spine -29.836058 14.886803 11.824026
Head -40.802957 -57.059607 54.461217
LeftShoulder 17.118211 6.344306 28.791205
LeftArm -36.461221 -27.891451 -68.238598
LeftForeArm -146.166846 3.489400 -5.188439
LeftHand -0.000030 39.910569 6.696359
LeftHandThumb1 30.357831 13.997178 22.438692
RightShoulder -15.112036 -22.437627 -11.893986
RightArm 53.969558 6.671666 90.332674
RightForeArm 85.142572 -23.381615 1.931586
RightHand -0.000036 -3.984695 23.534194
RightHandThumb1 30.482666 -12.916435 -20.793814
LeftUpLeg -46.602548 13.865982 22.264144
LeftLeg 18.951300 -0.000000 -0.000000
LeftFoot -18.424346 17.786811 -5.433232
LeftToeBase 3.534400 -0.000000 -0.000000
RightUpLeg 10.774756 -0.299411 -33.500121
RightLeg 128.156204 -0.000000 -0.000000
RightFoot 35.609476 -9.285336 -1.314091
RightToeBase 20.720600 0.000000 0.000000
3716
root -1.981896 34.048333 -2.727994 46.513596 -3.546820 -32.532331
Spine -29.591653 15.004956 11.910305
Head -40.919606 -57.009794 54.537139
LeftShoulder 17.050328 6.319379 28.828015
LeftArm -36.383580 -27.893134 -68.160278
LeftForeArm -146.142626 3.509458 -5.213322
LeftHand -0.000025 40.032168 6.829381
LeftHandThumb1 30.357831 13.997178 22.438692
RightShoulder -15.161128 -22.349514 -11.914631
RightArm 53.756494 6.611983 90.371478
RightForeArm 84.983429 -23.352671 1.992810
RightHand 0.000015 -3.983990 23.542595
RightHandThumb1 30.482666 -12.916435 -20.793814
LeftUpLeg -46.461578 13.836890 22.437742
LeftLeg 18.930500 0.000000 0.000000
LeftFoot -18.426826 17.982980 -5.313269
LeftToeBase 3.622700 0.000000 0.000000
RightUpLeg 10.589618 -0.200410 -33.403178
RightLeg 128.031097 -0.000000 -0.000000
RightFoot 35.521372 -9.343555 -1.706349
RightToeBase 20.709400 0.000000 0.000000
3717
root -1.997996 34.049233 -2.737094 46.386612 -3.544103 -32.527455
Spine -29.371970 14.941242 11.900633
Head -40.834671 -56.936110 54.578058
LeftShoulder 17.042155 6.312070 28.918199
LeftArm -36.326205 -27.957435 -68.072393
LeftForeArm -146.098653 3.485063 -5.168792
LeftHand -0.000023 40.096741 6.932006
LeftHandThumb1 30.357831 13.997178 22.438692
RightShoulder -15.217558 -22.201153 -11.853397
RightArm 53.583877 6.549785 90.388522
RightForeArm 84.871989 -23.407311 2.041772
RightHand -0.000029 -3.974195 23.468270
RightHandThumb1 30.482666 -12.916435 -20.793814
LeftUpLeg -46.331793 13.757767 22.514606
LeftLeg 18.901800 -0.000000 -0.000000
LeftFoot -18.384260 18.059642 -5.225339
LeftToeBase 3.574200 0.000000 0.000000
RightUpLeg 10.549376 -0.168305 -33.352335
RightLeg 127.932800 0.000000 0.000000
RightFoot 35.432886 -9.452724 -1.994385
RightToeBase 21.122299 0.000000 0.000000
3718
root -2.011196 34.048630 -2.747694 46.291011 -3.559013 -32.494497
Spine -29.207843 14.908712 11.830479
Head -40.798862 -56.883483 54.623953
LeftShoulder 16.988849 6.285369 29.000050
LeftArm -36.213858 -28.023257 -67.964558
LeftForeArm -146.024183 3.533367 -5.225346
LeftHand -0.000096 40.165626 6.998981
LeftHandThumb1 30.357831 13.997178 22.438692
RightShoulder -15.288370 -22.105196 -11.819109
RightArm 53.451056 6.450264 90.434110
RightForeArm 84.807835 -23.488565 2.074198
RightHand -0.000022 -3.983764 23.423901
RightHandThumb1 30.482666 -12.916435 -20.793814
LeftUpLeg -46.233906 13.652385 22.569857
LeftLeg 18.880699 0.000000 0.000000
LeftFoot -18.359384 18.153498 -5.179621
LeftToeBase 3.523000 -0.000000 -0.000000
RightUpLeg 10.478513 -0.178468 -33.351571
RightLeg 127.927200 0.000000 0.000000
RightFoot 35.316805 -9.511696 -2.392119
RightToeBase 20.788000 -0.000000 -0.000000
3719
root -2.023496 34.047730 -2.756994 46.214700 -3.581878 -32.435156
Spine -29.106744 14.900081 11.704104
Head -40.700927 -56.867091 54.615443
LeftShoulder 16.950581 6.232946 29.071273
LeftArm -36.091169 -28.150300 -67.867872
LeftForeArm -145.908840 3.608216 -5.312287
LeftHand -0.000066 40.207651 7.019406
LeftHandThumb1 30.357831 13.997178 22.438692
RightShoulder -15.339419 -22.074981 -11.770156
RightArm 53.417389 6.378793 90.474186
RightForeArm 84.761961 -23.691653 2.109649
RightHand -0.000038 -3.953541 23.343098
RightHandThumb1 30.482666 -12.916435 -20.793814
LeftUpLeg -46.176425 13.624092 22.533497
LeftLeg 18.861900 -0.000000 0.000000
LeftFoot -18.331069 18.119877 -5.147767
LeftToeBase 3.547400 0.000000 0.000000
RightUpLeg 10.410809 -0.199276 -33.364126
RightLeg 127.974602 0.000000 0.000000
RightFoot 35.256481 -9.626654 -2.553891
RightToeBase 21.332001 -0.000000 -0.000000
3720
root -2.038196 34.047631 -2.766494 46.143299 -3.566286 -32.368030
Spine -29.028405 14.870361 11.584880
Head -40.580795 -56.862386 54.563256
LeftShoulder 16.923633 6.208501 29.141850
LeftArm -35.922962 -28.343289 -67.730536
LeftForeArm -145.760287 3.714910 -5.437972
LeftHand 0.000012 40.308180 7.071189
LeftHandThumb1 30.357831 13.997178 22.438692
RightShoulder -15.344700 -22.092640 -11.742868
RightArm 53.424119 6.357120 90.542809
RightForeArm 84.743356 -23.805898 2.126785
RightHand -0.000020 -4.005681 23.258119
RightHandThumb1 30.482666 -12.916435 -20.793814
LeftUpLeg -46.133493 13.515800 22.555103
LeftLeg 18.847099 0.000000 0.000000
LeftFoot -18.306769 18.204254 -5.022248
LeftToeBase 3.652900 -0.000000 -0.000000
RightUpLeg 10.359826 -0.241384 -33.340060
RightLeg 128.074097 -0.000000 -0.000000
RightFoot 35.229480 -9.660367 -2.668595
RightToeBase 20.909800 -0.000000 0.000000
3721
root -2.052796 34.045433 -2.775695 46.066225 -3.548556 -32.289476
Spine -28.961988 14.795741 11.482243
Head -40.352476 -56.882636 54.381984
LeftShoulder 16.882308 6.196892 29.215783
LeftArm -35.626571 -28.509449 -67.582734
LeftForeArm -145.593669 4.127315 -5.999133
LeftHand -0.000024 40.442352 7.419450
LeftHandThumb1 30.357831 13.997178 22.438692
RightShoulder -15.333649 -22.071775 -11.718953
RightArm 53.461862 6.364637 90.614152
RightForeArm 84.737051 -23.949773 2.141450
RightHand -0.000008 -4.057764 23.201881
RightHandThumb1 30.482666 -12.916435 -20.793814
LeftUpLeg -46.091614 13.396765 22.568393
LeftLeg 18.836000 0.000000 0.000000
LeftFoot -18.285872 18.290798 -4.965529
LeftToeBase 3.642800 0.000000 0.000000
RightUpLeg 10.309687 -0.293441 -33.335371
RightLeg 128.229599 -0.000000 -0.000000
RightFoot 35.236946 -9.708410 -2.694512
RightToeBase 20.980600 0.000000 0.000000
3722
root -2.068596 34.041531 -2.784094 45.972065 -3.513390 -32.209032
Spine -28.864301 14.730759 11.399792
Head -40.261122 -56.861259 54.285891
LeftShoulder 16.766697 6.197297 29.266241
LeftArm -35.464910 -28.597168 -67.444050
LeftForeArm -145.414714 4.201611 -6.065706
LeftHand 0.000047 40.514601 7.547140
LeftHandThumb1 30.357831 13.997178 22.438692
RightShoulder -15.343127 -22.090850 -11.707169
RightArm 53.527697 6.375341 90.676128
RightForeArm 84.767920 -24.089638 2.140513
RightHand 0.000022 -4.099284 23.135723
RightHandThumb1 30.482666 -12.916435 -20.793814
LeftUpLeg -46.039159 13.246714 22.608364
LeftLeg 18.831200 0.000000 0.000000
LeftFoot -18.287837 18.391067 -4.995687
LeftToeBase 3.632900 -0.000000 -0.000000
RightUpLeg 10.286455 -0.339122 -33.310566
RightLeg 128.421005 -0.000000 -0.000000
RightFoot 35.257942 -9.679363 -2.684354
RightToeBase 20.978100 -0.000000 -0.000000
3723
root -2.084096 34.038433 -2.794294 45.900333 -3.493852 -32.161980
Spine -28.784431 14.695358 11.340480
Head -40.159825 -56.823819 54.138832
LeftShoulder 16.678799 6.178856 29.320247
LeftArm -35.380946 -28.645634 -67.338479
LeftForeArm -145.255381 4.212775 -6.045896
LeftHand 0.000017 40.558341 7.651054
LeftHandThumb1 30.357831 13.997178 22.438692
RightShoulder -15.329687 -22.112540 -11.721894
RightArm 53.602707 6.418149 90.763972
RightForeArm 84.783019 -24.109000 2.135919
RightHand 0.000002 -3.996212 23.388140
RightHandThumb1 30.482666 -12.916435 -20.793814
LeftUpLeg -45.987270 13.078617 22.693964
LeftLeg 18.833000 -0.000000 -0.000000
LeftFoot -18.314666 18.581369 -4.992456
LeftToeBase 3.596600 -0.000000 -0.000000
RightUpLeg 10.193997 -0.361447 -33.284346
RightLeg 128.663101 -0.000000 -0.000000
RightFoot 35.357672 -9.582146 -2.628089
RightToeBase 20.900700 0.000000 0.000000
3724
root -2.095196 34.033333 -2.802694 45.796469 -3.478500 -32.111622
Spine -28.640409 14.625415 11.343176
Head -40.078465 -56.763264 53.934475
LeftShoulder 16.591432 6.192707 29.336380
LeftArm -35.337365 -28.638350 -67.234501
LeftForeArm -145.130445 4.237524 -6.053068
LeftHand -0.000003 40.627793 7.699246
LeftHandThumb1 30.357831 13.997178 22.438692
RightShoulder -15.284640 -22.105465 -11.751084
RightArm 53.733054 6.540686 90.843066
RightForeArm 84.814275 -24.100786 2.122384
RightHand 0.000051 -3.995788 23.369780
RightHandThumb1 30.482666 -12.916435 -20.793814
LeftUpLeg -45.925814 12.936567 22.746913
LeftLeg 18.863199 -0.000000 -0.000000
LeftFoot -18.332372 18.706550 -4.885356
LeftToeBase 3.673700 -0.000000 -0.000000
RightUpLeg 10.114287 -0.354371 -33.275076
RightLeg 128.932007 -0.000000 -0.000000
RightFoot 35.377203 -9.579947 -2.486613
RightToeBase 20.962601 -0.000000 -0.000000
